<svg width="42" height="36" viewBox="0 0 42 36" fill="none" xmlns="http://www.w3.org/2000/svg">
<path d="M21.7 31H14.0296L27.0182 4.81818H36.7341L41.0296 31H33.3591L30.8023 12.0284H30.5977L21.7 31ZM22.0068 20.6705H36.4273L35.5068 25.9886H21.0864L22.0068 20.6705Z" fill="#D0D0D0"/>
<path d="M0.199744 31L4.54633 4.81818H15.8475C17.7907 4.81818 19.4313 5.17187 20.7693 5.87926C22.1074 6.58665 23.0705 7.60511 23.6586 8.93466C24.2466 10.2642 24.3872 11.858 24.0804 13.7159C23.7736 15.5909 23.0961 17.1719 22.0478 18.4588C21.008 19.7372 19.6827 20.7088 18.0719 21.3736C16.4696 22.0298 14.6713 22.358 12.677 22.358H5.92702L6.84747 16.8352H12.1657C13.0009 16.8352 13.7338 16.733 14.3645 16.5284C14.9952 16.3153 15.5066 15.983 15.8986 15.5312C16.2907 15.071 16.5463 14.4659 16.6657 13.7159C16.785 12.9659 16.7253 12.3565 16.4867 11.8878C16.248 11.4105 15.8517 11.0611 15.2978 10.8395C14.7438 10.6094 14.0577 10.4943 13.2395 10.4943H10.7338L7.3077 31H0.199744ZM17.535 18.983L22.0861 31H14.3645L9.96679 18.983H17.535Z" fill="white"/>
</svg>
